HIERARCHY
ROOT Hips
{
	OFFSET	0.00	0.00	0.00
	CHANNELS 6 Xposition Yposition Zposition Zrotation Xrotation Yrotation
	JOINT Spine
	{
		OFFSET	 0.00	0.01	 0.00
		CHANNELS 3 Zrotation Xrotation Yrotation
		JOINT Spine1
		{
			OFFSET	 0.00	 2.45913012437421	 0.00
			CHANNELS 3 Zrotation Xrotation Yrotation
            JOINT Neck
            {
                OFFSET	 0.00	 2.48462964506057	 0.00
                CHANNELS 3 Zrotation Xrotation Yrotation
                JOINT Head
                {
                    OFFSET	 0.00	 0.927524780924562	 0.00
                    CHANNELS 3 Zrotation Xrotation Yrotation
                    End Site 
                    {
                        OFFSET	 0.00	 1.14999962169752	 0.00
                    }
                }
            }
			JOINT LeftShoulder
			{
				OFFSET	 0.00	 2.48462964506057	 0.00
				CHANNELS 3 Zrotation Xrotation Yrotation
				JOINT LeftUpArm
				{
					OFFSET	 0.00	 1.24881979654096	 0.00
					CHANNELS 3 Zrotation Xrotation Yrotation
					JOINT LeftForeArm
					{
						OFFSET	 0.00	2.59758046908119	 0.00
						CHANNELS 3 Zrotation Xrotation Yrotation
						JOINT LeftHand
						{
							OFFSET	 0.00	2.45542024364365	 0.00
							CHANNELS 3 Zrotation Xrotation Yrotation
							JOINT LeftHandThumb 
							{
								OFFSET	 0.00	0.00	 0.00
								CHANNELS 3 Zrotation Xrotation Yrotation
								End Site
								{
									OFFSET	 0.00	0.00	1.00000003353624
								}
							}
							JOINT L_Wrist_End 
							{
								OFFSET	 0.00	0.99999967115358	 0.00
								CHANNELS 3 Zrotation Xrotation Yrotation
								End Site 
								{
									OFFSET	 0.00	 0.00	 0.00
								}
							}
						}
					}
				}
			}
			JOINT RightShoulder
			{
				OFFSET	 0.00	 2.48462964506057	 0.00
				CHANNELS 3 Zrotation Xrotation Yrotation
				JOINT RightUpArm
				{
					OFFSET	 0.00	 1.24881979654096	 0.00
					CHANNELS 3 Zrotation Xrotation Yrotation
					JOINT RightForeArm
					{
						OFFSET	 0.00	2.59758046908119	 0.00
						CHANNELS 3 Zrotation Xrotation Yrotation
						JOINT RightHand
						{
							OFFSET	 0.00	2.45542024364365	 0.00
							CHANNELS 3 Zrotation Xrotation Yrotation
							JOINT RightHandThumb 
							{
								OFFSET	 0.00	0.00	 0.00
								CHANNELS 3 Zrotation Xrotation Yrotation
								End Site
								{
									OFFSET	 0.00	0.00	1.00000003353624
								}
							}
							JOINT R_Wrist_End 
							{
								OFFSET	 0.00	0.99999967115358	 0.00
								CHANNELS 3 Zrotation Xrotation Yrotation
								End Site 
								{
									OFFSET	 0.00	 0.00	 0.00
								}
							}
						}
					}
				}
			}
		}
	}
	JOINT LeftUpLeg
	{
		OFFSET	 1.2719394002717	 0.00	 0.00
		CHANNELS 3 Zrotation Xrotation Yrotation
		JOINT LeftLowLeg
		{
			OFFSET	 0.00	-4.3429100912261	 0.00
			CHANNELS 3 Zrotation Xrotation Yrotation
			JOINT LeftFoot
			{
				OFFSET	 0.00	-4.48767017425826	 0.00
				CHANNELS 3 Zrotation Xrotation Yrotation
				JOINT LeftToeBase
                {
                    OFFSET	 0.00	0.00	 1.51507020887566
                    CHANNELS 3 Zrotation Xrotation Yrotation
                    End Site 
                    {
                        OFFSET	 0.00	0.00	 0.75000010571191
                    }
                }
			}
		}
	}
	JOINT RightUpLeg
	{
		OFFSET	 -1.2719393604653	 0.00	 0.00
		CHANNELS 3 Zrotation Xrotation Yrotation
		JOINT RightLowLeg
		{
			OFFSET	 0.00	-4.3429100912261	 0.00
			CHANNELS 3 Zrotation Xrotation Yrotation
			JOINT RightFoot
			{
				OFFSET	 0.00	-4.48767017425826	 0.00
				CHANNELS 3 Zrotation Xrotation Yrotation
				JOINT RightToeBase
                {
                    OFFSET	 0.00	0.00	 1.51507020887566
                    CHANNELS 3 Zrotation Xrotation Yrotation
                    End Site 
                    {
                        OFFSET	 0.00	0.00	 0.749999965609858
                    }
                }   
			}
		}
	}
}
MOTION 
Frames:	13 
Frame Time: 0.02 
  0.89222900390625 0.7234089660644532 9.285330200195313 -85.2186 58.477 533.646 1.72923 2.12741 -1.00942 8.07601 3.22547 0.301886 -10.2579 53.8416 687.415 90.0081 -52.2764 -284.027 -125.6729 -0.645982 11.4735 -9.95637 34.5526 25.6771 0.0 52.0944 0.0 67.9358 37.0843 -4.93597 0.0 0.0 0.0 0.0 0.0 0.0 116.2001 9.20058 -20.3124 -0.309823 32.9883 -23.6319 0.0 49.4632 0.0 -55.1205 33.8114 -9.73812 0.0 0.0 0.0 0.0 0.0 0.0 11.4402 -18.1612 17.5651 0.0 -0.358578 0.0 -23.9514 6.2263603 13.4939 0.0 -39.0412 0.0 10.7156 -22.0338 3.55617 0.0 -5.67621 0.0 4.46612 11.4091 -13.559 0.0 -31.2118 0.0 
  0.9106069946289063 0.7262660217285156 9.286829833984376 -85.4539 58.1829 533.931 1.85096 2.33651 -1.00256 7.87406 3.27469 0.309825 -10.2899 53.819 687.436 90.1416 -52.276 -283.863 -125.700195 -0.65714 11.3741 -10.078 34.6131 25.6846 0.0 51.9479 0.0 67.8738 36.9604 -5.11785 0.0 0.0 0.0 0.0 0.0 0.0 116.2781 9.26961 -20.3989 -0.452172 32.9536 -23.4017 0.0 49.4109 0.0 -55.2373 33.8162 -9.47421 0.0 0.0 0.0 0.0 0.0 0.0 11.3351 -18.5323 17.5293 0.0 -0.0705543 0.0 -24.3673 6.16212 13.447 0.0 -39.364998 0.0 10.5572 -22.2237 3.4935 0.0 -5.67203 0.0 4.53426 11.30081 -13.4244 0.0 -31.2051 0.0 
  0.9310910034179688 0.7277320098876953 9.288410034179687 -85.6552 57.9536 534.253 1.95199 2.49134 -1.01081 7.69651 3.45436 0.290281 -10.3942 53.7201 687.584 90.1773 -52.285 -283.88 -125.687805 -0.562788 11.3556 -10.1838 34.6866 25.623 0.0 51.8088 0.0 67.8712 36.4928 -5.11042 0.0 0.0 0.0 0.0 0.0 0.0 116.315796 9.33257 -20.4498 -0.480464 32.9684 -23.1434 0.0 49.2704 0.0 -55.2844 33.7093 -9.1718 0.0 0.0 0.0 0.0 0.0 0.0 11.2435 -18.8791 17.6661 0.0 0.286132 0.0 -24.4029 6.2311296 13.2126 0.0 -39.4069 0.0 10.3889 -22.3213 3.40009 0.0 -5.70961 0.0 4.53224 11.2195 -13.3932 0.0 -31.2034 0.0 
  0.9530180358886718 0.7292040252685547 9.290980224609376 -85.8634 57.7597 534.636 2.06143 2.63019 -1.0349 7.49434 3.67708 0.252048 -10.5056 53.5639 687.767 90.2042 -52.2966 -283.995 -125.6905 -0.455453 11.4368 -10.2154 34.8866 25.506 0.0 51.4907 0.0 67.6197 36.131 -5.16735 0.0 0.0 0.0 0.0 0.0 0.0 116.3545 9.42207 -20.3053 -0.33323 32.9557 -23.078 0.0 49.1284 0.0 -55.0454 33.4803 -8.99289 0.0 0.0 0.0 0.0 0.0 0.0 11.0985 -19.263 18.022 0.0 0.736829 0.0 -24.5444 6.3244 12.8741 0.0 -39.4044 0.0 10.1714 -22.3418 3.17683 0.0 -5.80516 0.0 4.60885 11.15176 -13.2348 0.0 -31.1942 0.0 
  0.9774259948730468 0.7300450134277344 9.29291015625 -86.108 57.616 535.075 2.17546 2.62354 -1.08886 7.21291 4.15025 0.162568 -10.5785 53.2881 687.947 90.237 -52.2812 -284.098 -125.6215 -0.315245 11.4073 -10.3415 35.2003 25.5022 0.0 50.9801 0.0 67.2481 35.6254 -4.90661 0.0 0.0 0.0 0.0 0.0 0.0 116.416595 9.60419 -20.1382 -0.136733 32.9502 -22.9792 0.0 48.9435 0.0 -54.5205 33.1138 -9.03993 0.0 0.0 0.0 0.0 0.0 0.0 10.9691 -19.6635 18.3721 0.0 1.38234 0.0 -24.7101 6.3634596 12.3833 0.0 -39.2491 0.0 9.91611 -22.3102 2.97129 0.0 -5.87167 0.0 4.65886 11.02574 -13.1324 0.0 -31.1877 0.0 
  1.004459991455078 0.7317259979248046 9.294819946289062 -86.3291 57.5023 535.541 2.21205 2.70201 -1.16991 7.12599 4.39598 0.0614404 -10.6059 53.2088 687.958 90.3166 -52.3077 -284.042 -125.6499 -0.212305 11.3916 -10.6207 35.5672 25.7169 0.0 50.2319 0.0 66.6097 34.8869 -4.73843 0.0 0.0 0.0 0.0 0.0 0.0 116.417496 9.73996 -20.1756 0.100718 32.9986 -22.7617 0.0 48.5728 0.0 -53.9341 32.9389 -9.13395 0.0 0.0 0.0 0.0 0.0 0.0 10.8847 -20.1502 18.46 0.0 2.31805 0.0 -24.802 6.28876 11.9724 0.0 -39.2728 0.0 9.63626 -22.268 2.69561 0.0 -5.87492 0.0 4.66622 10.84757 -12.9867 0.0 -31.1516 0.0 
  1.0336100006103515 0.732886962890625 9.295709838867188 -86.4421 57.4764 535.935 2.22117 2.84566 -1.24064 7.17378 4.54123 -0.0215609 -11.1448 53.133 688.602 90.2568 -52.4572 -284.495 -125.739 -0.0621765 11.4858 -10.9877 36.0035 26.0332 0.0 49.2149 0.0 65.7975 33.8081 -4.89464 0.0 0.0 0.0 0.0 0.0 0.0 116.3771 9.91818 -19.9268 0.645267 32.934 -23.0364 0.0 48.1742 0.0 -53.5157 32.9949 -9.41865 0.0 0.0 0.0 0.0 0.0 0.0 10.9442 -20.7652 18.5276 0.0 3.78849 0.0 -24.3871 6.05462 11.4367 0.0 -39.2892 0.0 9.38265 -22.1003 2.42407 0.0 -5.89472 0.0 4.69727 10.6723995 -12.848 0.0 -31.1481 0.0 
  1.0666000366210937 0.7353009796142578 9.2952197265625 -86.4347 57.5264 536.219 2.25129 2.97314 -1.33652 7.27153 4.6895 -0.128367 -11.575 53.143 689.078 90.2612 -52.5841 -284.757 -125.8646 0.0627914 11.4688 -11.5564 36.489 26.6209 0.0 47.9309 0.0 64.9025 32.2272 -4.98058 0.0 0.0 0.0 0.0 0.0 0.0 116.3751 10.094 -19.9326 1.10147 32.9454 -23.1829 0.0 47.6138 0.0 -53.054 32.897 -9.51559 0.0 0.0 0.0 0.0 0.0 0.0 11.1644 -21.5736 18.3085 0.0 5.89763 0.0 -24.0996 5.49207 10.9008 0.0 -39.798 0.0 9.17517 -21.8158 2.39805 0.0 -5.93201 0.0 4.90732 10.42875 -12.989 0.0 -31.0724 0.0 
  1.0997799682617186 0.7370939636230469 9.29489013671875 -86.3785 57.638 536.468 2.28866 3.17236 -1.40144 7.35439 4.77304 -0.197927 -11.8639 53.1092 689.372 90.3359 -52.7038 -284.962 -125.979996 0.234491 11.5964 -12.1997 37.036 27.1253 0.0 46.4463 0.0 63.8042 30.4253 -5.32514 0.0 0.0 0.0 0.0 0.0 0.0 116.4331 10.1927 -19.9216 1.52153 32.9461 -23.3125 0.0 47.1253 0.0 -52.3686 32.9793 -10.478 0.0 0.0 0.0 0.0 0.0 0.0 11.4969 -22.6905 18.1818 0.0 8.66183 0.0 -23.937 4.7984 10.3796 0.0 -40.5179 0.0 9.01134 -21.492 2.04548 0.0 -5.92014 0.0 5.1518 10.174379 -12.8167 0.0 -31.0459 0.0 
  1.1344499969482422 0.7403230285644531 9.2960400390625 -86.4079 57.8785 536.735 2.23309 3.53211 -1.4005 7.48357 4.71417 -0.195968 -11.8777 53.1991 689.275 90.5729 -52.788 -284.929 -126.0832 0.507487 11.6715 -13.206 37.4928 27.8024 0.0 44.7944 0.0 62.4825 28.5362 -5.06358 0.0 0.0 0.0 0.0 0.0 0.0 116.515305 10.2093 -20.0256 1.94916 32.9004 -23.391 0.0 46.6414 0.0 -51.3172 32.6127 -10.992 0.0 0.0 0.0 0.0 0.0 0.0 11.8679 -24.0278 18.2051 0.0 12.0682 0.0 -22.8559 4.1188 10.1944 0.0 -41.138702 0.0 8.8004 -21.1146 1.69507 0.0 -5.7497 0.0 5.16524 9.952209 -12.6298 0.0 -31.0915 0.0 
  1.1691500091552733 0.7438379669189453 9.2985302734375 -86.5749 58.2206 537.086 1.94459 4.01826 -1.44029 7.81906 4.60046 -0.252451 -12.3937 53.162 689.796 90.7354 -52.9827 -285.166 -126.3369 0.648349 11.9156 -14.0895 38.0064 28.1023 0.0 43.0151 0.0 61.1901 26.4973 -5.04622 0.0 0.0 0.0 0.0 0.0 0.0 116.5221 10.3678 -20.113 2.59164 32.8628 -23.408 0.0 46.058 0.0 -50.0374 32.3429 -11.6808 0.0 0.0 0.0 0.0 0.0 0.0 12.2344 -25.7211 18.6912 0.0 16.3227 0.0 -21.503 3.6210003 10.2297 0.0 -42.840202 0.0 8.5042 -20.6603 1.50207 0.0 -5.5528 0.0 5.19665 9.718161 -12.5292 0.0 -31.0995 0.0 
  1.2036599731445312 0.7503690338134765 9.301060180664063 -86.6248 58.6043 537.368 1.68743 4.43044 -1.52097 8.19419 4.68767 -0.368168 -12.7001 52.8918 690.065 90.7177 -53.1763 -285.317 -126.5974 0.815348 11.9019 -15.1967 38.4735 28.5098 0.0 41.1028 0.0 59.8372 24.7602 -5.81496 0.0 0.0 0.0 0.0 0.0 0.0 116.5105 10.6112 -20.2103 3.14917 32.8184 -23.3734 0.0 45.436 0.0 -48.8308 32.1153 -12.2428 0.0 0.0 0.0 0.0 0.0 0.0 12.6996 -27.9256 18.9896 0.0 21.547 0.0 -18.6077 3.0562 11.1909 0.0 -44.258102 0.0 8.23799 -20.1794 1.24742 0.0 -5.30157 0.0 5.27964 9.429319 -12.3733 0.0 -30.938099 0.0 
  1.2416300201416015 0.7594580078125 9.30197021484375 -86.6938 59.0574 537.581 1.34424 4.79265 -1.54 8.66209 4.88479 -0.444159 -13.2331 52.5091 690.612 90.5522 -53.4639 -285.801 -126.958405 1.01143 11.9014 -16.182 38.8924 28.9504 0.0 39.1978 0.0 58.9506 23.4854 -5.95113 0.0 0.0 0.0 0.0 0.0 0.0 116.5695 10.7701 -20.7017 3.24718 32.8066 -22.9401 0.0 44.7463 0.0 -48.019 31.9578 -12.9196 0.0 0.0 0.0 0.0 0.0 0.0 13.0768 -30.4188 18.9136 0.0 27.4742 0.0 -12.7756 2.8669996 13.4064 0.0 -45.7683 0.0 8.01268 -19.5947 1.05866 0.0 -5.09177 0.0 5.54069 9.1082 -12.3485 0.0 -30.9137 0.0 
